<svg id="_x31__px" enable-background="new 0 0 24 24" height="512" viewBox="0 0 24 24" width="512" xmlns="http://www.w3.org/2000/svg"><path d="m16.5 24h-9c-.276 0-.5-.224-.5-.5s.224-.5.5-.5h9c.276 0 .5.224.5.5s-.224.5-.5.5z"/><path d="m17.319 13h-10.638c-.442 0-.859-.193-1.145-.53s-.408-.781-.335-1.216l1.667-10c.12-.727.742-1.254 1.479-1.254h7.306c.737 0 1.359.527 1.479 1.253l1.667 10c.073.436-.049.879-.335 1.216-.285.338-.703.531-1.145.531zm-8.972-12c-.245 0-.453.176-.493.417l-1.667 10c-.024.147.015.292.112.406s.232.177.382.177h10.639c.149 0 .285-.063.382-.177s.136-.258.112-.406l-1.667-10c-.041-.241-.249-.417-.494-.417z"/><path d="m12 24c-.276 0-.5-.224-.5-.5v-5c0-.276.224-.5.5-.5s.5.224.5.5v5c0 .276-.224.5-.5.5z"/><path d="m19.5 19h-15c-.276 0-.5-.224-.5-.5v-2c0-1.378 1.122-2.5 2.5-2.5h11c1.378 0 2.5 1.122 2.5 2.5v2c0 .276-.224.5-.5.5zm-14.5-1h14v-1.5c0-.827-.673-1.5-1.5-1.5h-11c-.827 0-1.5.673-1.5 1.5z"/><path d="m19.5 18c-.276 0-.5-.224-.5-.5v-3c0-1.378 1.122-2.5 2.5-2.5.276 0 .5.224.5.5s-.224.5-.5.5c-.827 0-1.5.673-1.5 1.5v3c0 .276-.224.5-.5.5z"/><path d="m4.5 18c-.276 0-.5-.224-.5-.5v-3c0-.827-.673-1.5-1.5-1.5-.276 0-.5-.224-.5-.5s.224-.5.5-.5c1.378 0 2.5 1.122 2.5 2.5v3c0 .276-.224.5-.5.5z"/></svg>