<svg id="Capa_1" enable-background="new 0 0 511.932 511.932" height="512" viewBox="0 0 511.932 511.932" width="512" xmlns="http://www.w3.org/2000/svg"><g><path d="m78.966 299.932c.588 0 1.17-.022 1.752-.044l36.225 92.044h-7.977c-24.813 0-45 20.187-45 45v60c0 8.284 6.716 15 15 15h240c8.284 0 15-6.716 15-15v-30c0-41.355-33.645-75-75-75h-45v-15c0-8.284-6.716-15-15-15s-15 6.716-15 15v15h-34.783l-40.6-103.163c9.419-8.254 15.384-20.359 15.384-33.837 0-7.673-1.935-14.902-5.336-21.23l110.569-110.569 22.792 22.792c-19.138 28.823-16.349 68.504 9.548 94.401l21.213 21.213c5.857 5.858 15.355 5.858 21.213 0l148.492-148.493c5.858-5.858 5.858-15.355 0-21.213l-21.213-21.213c-25.611-25.611-65.288-28.789-94.392-9.539l-43.493-43.494c-23.448-23.448-61.402-23.451-84.853 0-23.22 23.219-23.38 60.884-.507 84.32l-111.559 111.558c-5.375-2.274-11.281-3.532-17.475-3.532-24.813 0-45 20.187-45 45s20.187 44.999 45 44.999zm225 167v15h-210v-45c0-8.271 6.729-15 15-15h150c24.813 0 45 20.187 45 45zm106.066-375.099 10.607 10.607-127.279 127.279-10.607-10.607c-17.586-17.586-17.589-46.051 0-63.64l63.638-63.638s.001-.001.001-.001c17.546-17.545 46.095-17.546 63.64 0zm-180.312-53.033c11.724-11.724 30.7-11.726 42.426 0l42.426 42.426-42.426 42.427c-40.973-41.781-35.408-35.779-42.426-42.426-11.697-11.697-11.697-30.73 0-42.427zm-150.754 201.132c8.271 0 15 6.729 15 15s-6.729 15-15 15-15-6.729-15-15 6.729-15 15-15z"/><path d="m441.852 249.892c5.858-5.858 5.858-15.355 0-21.213l-21.213-21.213c-5.857-5.858-15.355-5.858-21.213 0s-5.858 15.355 0 21.213l21.213 21.213c5.857 5.857 15.355 5.858 21.213 0z"/><path d="m426.966 186.932c0 8.284 6.716 15 15 15h21c8.284 0 15-6.716 15-15s-6.716-15-15-15h-21c-8.284 0-15 6.716-15 15z"/><path d="m392.966 270.932v-21c0-8.284-6.716-15-15-15s-15 6.716-15 15v21c0 8.284 6.716 15 15 15s15-6.716 15-15z"/></g></svg>