<?xml version="1.0" encoding="iso-8859-1"?>
<!-- Generator: Adobe Illustrator 19.0.0, SVG Export Plug-In . SVG Version: 6.00 Build 0)  -->
<svg version="1.1" id="Capa_1" xmlns="http://www.w3.org/2000/svg" xmlns:xlink="http://www.w3.org/1999/xlink" x="0px" y="0px"
	 viewBox="0 0 480 480" style="enable-background:new 0 0 480 480;" xml:space="preserve">
<g>
	<g>
		<g>
			<path d="M416,0H64C50.745,0,40,10.745,40,24v432c0,13.255,10.745,24,24,24h352c13.255,0,24-10.745,24-24V24
				C440,10.745,429.255,0,416,0z M424,456c0,4.418-3.582,8-8,8H64c-4.418,0-8-3.582-8-8V128h368V456z M424,112H56V24
				c0-4.418,3.582-8,8-8h352c4.418,0,8,3.582,8,8V112z"/>
			<path d="M144,32H96c-13.255,0-24,10.745-24,24v16c0,13.255,10.745,24,24,24h48c13.255,0,24-10.745,24-24V56
				C168,42.745,157.255,32,144,32z M152,72c0,4.418-3.582,8-8,8H96c-4.418,0-8-3.582-8-8V56c0-4.418,3.582-8,8-8h48
				c4.418,0,8,3.582,8,8V72z"/>
			<path d="M240,400c66.274,0,120-53.726,120-120c-0.075-66.243-53.757-119.925-120-120c-66.274,0-120,53.726-120,120
				S173.726,400,240,400z M240,176c57.438,0,104,46.562,104,104c-0.066,57.41-46.59,103.934-104,104c-57.438,0-104-46.562-104-104
				S182.562,176,240,176z"/>
			<path d="M376,32c-17.673,0-32,14.327-32,32s14.327,32,32,32c17.673,0,32-14.327,32-32S393.673,32,376,32z M376,80
				c-8.837,0-16-7.163-16-16s7.163-16,16-16s16,7.163,16,16S384.837,80,376,80z"/>
			<path d="M296,32c-17.673,0-32,14.327-32,32s14.327,32,32,32c17.673,0,32-14.327,32-32S313.673,32,296,32z M296,80
				c-8.837,0-16-7.163-16-16s7.163-16,16-16s16,7.163,16,16S304.837,80,296,80z"/>
			<path d="M257.736,358c29.98-6.832,53.392-30.244,60.224-60.224c0.981-4.308-1.716-8.596-6.024-9.576
				c-0.583-0.133-1.178-0.2-1.776-0.2H256v-16h54.16c4.418,0,8-3.582,8-8c0-0.597-0.067-1.193-0.2-1.776
				c-9.817-43.078-52.698-70.042-95.776-60.224c-43.078,9.817-70.042,52.698-60.224,95.776
				C171.777,340.854,214.658,367.818,257.736,358z M180.653,256c13.255-32.767,50.563-48.584,83.33-35.33
				c16.077,6.503,28.826,19.253,35.33,35.33H248c-4.418,0-8,3.582-8,8v32c0,4.418,3.582,8,8,8h51.312
				c-13.255,32.767-50.563,48.584-83.33,35.33S167.398,288.767,180.653,256z"/>
		</g>
	</g>
</g>
<g>
</g>
<g>
</g>
<g>
</g>
<g>
</g>
<g>
</g>
<g>
</g>
<g>
</g>
<g>
</g>
<g>
</g>
<g>
</g>
<g>
</g>
<g>
</g>
<g>
</g>
<g>
</g>
<g>
</g>
</svg>
